<svg width="50" height="50" viewBox="0 0 50 50" fill="none" xmlns="http://www.w3.org/2000/svg">
<g clip-path="url(#clip0_106_21)">
<path d="M50 11.252C50.0252 7.9045 49.5144 4.57454 48.487 1.3885C48.3891 1.11148 48.2338 0.858278 48.0312 0.645489C47.8286 0.432699 47.5833 0.265129 47.3115 0.153761C47.0396 0.0423939 46.7472 -0.0102557 46.4536 -0.00073627C46.1599 0.0087832 45.8716 0.0802568 45.6075 0.208999C42.291 1.87478 39.2638 4.06267 36.6415 6.689C35.2736 8.02413 34.0065 9.45872 32.8505 10.981C30.5139 9.55872 27.8221 8.82765 25.087 8.8725H24.913C22.1774 8.82511 19.4848 9.55637 17.149 10.981C15.9932 9.45858 14.726 8.02398 13.358 6.689C10.7346 4.064 7.70757 1.87627 4.392 0.208999C4.1279 0.0802568 3.83958 0.0087832 3.54593 -0.00073627C3.25228 -0.0102557 2.95993 0.0423939 2.68805 0.153761C2.41617 0.265129 2.1709 0.432699 1.96831 0.645489C1.76572 0.858278 1.61039 1.11148 1.5125 1.3885C0.485113 4.57454 -0.0256816 7.9045 -0.000501048 11.252C-0.00200105 12.815 0.104499 14.377 0.316499 15.925C0.54871 17.641 0.934594 19.3326 1.4695 20.9795C1.66239 21.5483 1.68188 22.1616 1.5255 22.7415C0.966675 24.7866 0.686974 26.8979 0.693999 29.018C0.659658 32.1868 1.30766 35.3258 2.594 38.222C2.92195 38.9708 3.32183 39.686 3.788 40.3575C4.13288 40.8564 4.50564 41.3355 4.9045 41.7925C6.3585 43.43 10.1575 44.8 11.6445 45.3695C17.4445 47.5895 18.2945 49.1945 22.883 49.817C23.7695 49.937 24.508 49.982 24.999 50C25.7067 49.9731 26.4127 49.9121 27.1145 49.817C31.7045 49.195 32.553 47.59 38.3535 45.3695C39.8405 44.7995 43.6395 43.4295 45.0935 41.7925C45.4924 41.3356 45.8651 40.8565 46.21 40.3575C46.6756 39.6859 47.0753 38.9709 47.4035 38.2225C48.6903 35.3265 49.3383 32.1873 49.3035 29.0185C49.3109 26.8984 49.0312 24.787 48.472 22.742C48.3156 22.1621 48.3351 21.5488 48.528 20.98C49.0631 19.333 49.449 17.6412 49.681 15.925C49.8945 14.3765 50.001 12.815 50 11.252V11.252Z" fill="white"/>
</g>
<defs>
<clipPath id="clip0_106_21">
<rect width="50" height="50" fill="white"/>
</clipPath>
</defs>
</svg>
