<svg width="50" height="50" viewBox="0 0 50 50" fill="none" xmlns="http://www.w3.org/2000/svg">
<g clip-path="url(#clip0_105_4)">
<path d="M40.5494 37.9894C40.2386 37.8217 39.8602 37.8381 39.565 38.0323C37.3304 39.5012 35.065 40.246 32.8311 40.246C31.6308 40.246 30.5994 39.9779 29.6742 39.4238C29.0454 39.0515 28.4611 38.4006 28.2517 37.8348C28.0485 37.2969 28.0508 35.8488 28.0538 33.8448L28.0548 21.625H38.2077C38.7388 21.625 39.1692 21.1944 39.1692 20.6635V12.0773C39.1692 11.5463 38.7388 11.1158 38.2077 11.1158H28.0548V0.961538C28.0548 0.430577 27.6244 0 27.0933 0H20.2536C19.7675 0 19.3579 0.362885 19.299 0.845577C19.0133 3.19731 18.4802 5.15 17.7131 6.6525C16.965 8.13327 15.9529 9.42192 14.7033 10.4842C13.7021 11.3381 11.9883 12.1642 9.60903 12.9398C9.21326 13.0688 8.94557 13.4377 8.94557 13.854V20.6637C8.94557 21.1946 9.37596 21.6252 9.90711 21.6252H15.475V37.5225C15.475 39.865 15.7235 41.6277 16.235 42.9121C16.7561 44.2169 17.6813 45.4456 18.9856 46.5646C20.2685 47.6638 21.8298 48.5237 23.6313 49.1219C25.3779 49.6915 26.7688 50.0002 29.1142 50.0002C31.0969 50.0002 32.9867 49.7946 34.7321 49.3888C36.4477 48.9885 38.3892 48.281 40.5029 47.2862C40.84 47.1275 41.055 46.7887 41.055 46.4162V38.836C41.0546 38.4823 40.8608 38.1573 40.5494 37.9894Z" fill="white"/>
</g>
<defs>
<clipPath id="clip0_105_4">
<rect width="50" height="50" fill="white"/>
</clipPath>
</defs>
</svg>
