<svg width="50" height="50" viewBox="0 0 50 50" fill="none" xmlns="http://www.w3.org/2000/svg">
<path d="M25 0C11.1937 0 0 11.1937 0 25C0 38.8062 11.1937 50 25 50C38.8062 50 50 38.8062 50 25C50 11.1937 38.8062 0 25 0ZM37.6375 20.0938C38.0187 28.5104 31.7417 37.8937 20.6292 37.8937C17.25 37.8937 14.1062 36.9021 11.4583 35.2042C14.6333 35.5792 17.8021 34.6958 20.3167 32.7271C17.7 32.6792 15.4896 30.9479 14.725 28.5708C15.6646 28.75 16.5896 28.6979 17.4292 28.4687C14.5521 27.8896 12.5646 25.2979 12.6292 22.525C13.4375 22.9729 14.3583 23.2417 15.3396 23.2729C12.675 21.4917 11.9208 17.9729 13.4875 15.2833C16.4375 18.9042 20.8479 21.2854 25.8208 21.5354C24.9479 17.7937 27.7875 14.1875 31.6521 14.1875C33.3708 14.1875 34.9271 14.9146 36.0187 16.0771C37.3812 15.8104 38.6646 15.3104 39.8188 14.625C39.3708 16.0229 38.4229 17.1937 37.1875 17.9354C38.3979 17.7896 39.5521 17.4687 40.6229 16.9917C39.8229 18.1958 38.8104 19.25 37.6375 20.0938V20.0938Z" fill="white"/>
</svg>
